<svg width="262" height="231" viewBox="0 0 262 231" fill="none" xmlns="http://www.w3.org/2000/svg">
<path d="M205.225 50.4619L200.395 60.2858L199.328 58.6309L200.398 48.7619L205.225 50.4619Z" fill="#324C8E"/>
<path d="M192.777 49.3002L223.22 52.0723C224.646 52.201 225.757 50.8241 225.308 49.4616L210.161 3.04843C209.663 1.5348 207.67 1.1963 206.695 2.46854L174.156 44.5266C173.201 45.7707 173.973 47.5712 175.534 47.7172L192.777 49.3002Z" fill="#4E64EE"/>
<path d="M207.097 10.3885L201.328 50.0789L200.432 60.1229C200.335 60.8431 199.369 61.0327 199.02 60.4004L192.928 49.3194L207.097 10.3885Z" fill="#3554B7"/>
<path d="M53.3094 229.756C53.2638 229.791 53.2209 229.806 53.1665 229.83C52.9432 229.893 52.7042 229.771 52.6336 229.537C52.5071 229.112 52.3806 228.687 52.2743 228.265C52.2124 228.043 52.3483 227.795 52.5716 227.731C52.7949 227.668 53.0426 227.801 53.1045 228.024C53.2223 228.437 53.3374 228.871 53.4551 229.284C53.5024 229.464 53.4464 229.651 53.3094 229.756ZM128.609 171.556C128.598 171.564 128.598 171.564 128.586 171.573C128.092 171.898 127.578 172.221 127.058 172.512C126.858 172.629 126.591 172.565 126.466 172.355C126.35 172.156 126.417 171.889 126.628 171.762C127.137 171.48 127.628 171.175 128.102 170.847C128.305 170.71 128.563 170.763 128.7 170.964C128.827 171.154 128.792 171.415 128.609 171.556ZM131.997 168.74C131.826 168.871 131.582 168.861 131.429 168.708C131.267 168.545 131.253 168.267 131.43 168.096C131.823 167.686 132.218 167.256 132.594 166.824C132.742 166.639 133.02 166.623 133.205 166.77C133.389 166.916 133.403 167.193 133.255 167.379C132.865 167.84 132.458 168.278 132.043 168.705C132.022 168.702 132.008 168.731 131.997 168.74ZM123.095 174.294C123.061 174.32 123.027 174.346 122.984 174.361C122.426 174.556 121.859 174.739 121.284 174.91C121.06 174.974 120.812 174.84 120.751 174.618C120.689 174.395 120.825 174.147 121.048 174.084C121.612 173.921 122.167 173.746 122.694 173.558C122.92 173.475 123.159 173.597 123.241 173.822C123.311 173.984 123.243 174.18 123.095 174.294ZM135.719 163.832C135.582 163.937 135.396 163.954 135.235 163.862C135.036 163.745 134.959 163.48 135.078 163.28C135.37 162.787 135.645 162.27 135.899 161.751C136.009 161.54 136.267 161.451 136.477 161.559C136.687 161.668 136.775 161.924 136.665 162.135C136.399 162.663 136.102 163.197 135.807 163.711C135.79 163.76 135.754 163.806 135.719 163.832ZM117.121 175.748C117.064 175.792 116.998 175.824 116.915 175.834C116.342 175.914 115.749 175.991 115.147 176.057C114.909 176.078 114.707 175.909 114.676 175.681C114.646 175.452 114.828 175.241 115.057 175.209C115.639 175.14 116.221 175.071 116.783 175C117.012 174.968 117.237 175.119 117.276 175.359C117.306 175.516 117.235 175.66 117.121 175.748ZM155.412 145.427C155.218 145.576 154.956 145.543 154.809 145.35C154.661 145.158 154.696 144.897 154.89 144.748C155.347 144.397 155.806 144.027 156.245 143.654C156.419 143.503 156.703 143.518 156.851 143.711C157.01 143.895 156.983 144.167 156.789 144.316C156.339 144.698 155.868 145.077 155.412 145.427ZM151.781 147.926C151.769 147.935 151.758 147.943 151.747 147.952C151.447 148.128 151.135 148.313 150.835 148.489C150.624 148.616 150.415 148.722 150.195 148.837C149.987 148.943 149.731 148.869 149.614 148.671C149.51 148.463 149.585 148.207 149.785 148.09C149.994 147.984 150.194 147.866 150.394 147.749C150.694 147.572 150.994 147.396 151.294 147.22C151.494 147.103 151.761 147.167 151.888 147.357C151.996 147.545 151.952 147.794 151.781 147.926ZM138.229 158.218C138.114 158.306 137.968 158.328 137.83 158.29C137.606 158.21 137.484 157.98 137.557 157.744C137.742 157.206 137.91 156.645 138.058 156.082C138.119 155.855 138.354 155.711 138.589 155.782C138.817 155.842 138.959 156.074 138.886 156.31C138.727 156.882 138.556 157.463 138.368 158.021C138.348 158.09 138.297 158.165 138.229 158.218ZM160.024 141.348C159.853 141.479 159.609 141.469 159.456 141.316C159.294 141.153 159.28 140.875 159.457 140.704C159.858 140.305 160.265 139.867 160.67 139.449C160.826 139.275 161.104 139.259 161.286 139.425C161.46 139.58 161.473 139.858 161.305 140.041C160.898 140.479 160.483 140.906 160.078 141.324C160.049 141.31 160.047 141.33 160.024 141.348ZM51.9205 224.236C51.8749 224.271 51.8091 224.304 51.7461 224.316C51.5141 224.368 51.2892 224.217 51.2387 223.986C51.1226 223.409 51.0065 222.833 50.9105 222.259C50.8714 222.019 51.0334 221.805 51.254 221.761C51.4947 221.72 51.7081 221.88 51.7499 222.1C51.8573 222.666 51.9534 223.24 52.0809 223.807C52.1107 223.965 52.0574 224.131 51.9205 224.236ZM146.238 150.65C146.204 150.676 146.169 150.703 146.126 150.718C145.577 150.923 145.016 151.138 144.45 151.321C144.224 151.404 143.976 151.27 143.914 151.048C143.832 150.823 143.968 150.575 144.191 150.511C144.738 150.326 145.296 150.132 145.825 149.923C146.051 149.84 146.293 149.942 146.375 150.167C146.445 150.329 146.386 150.536 146.238 150.65ZM164.127 136.724C163.967 136.846 163.752 136.85 163.596 136.717C163.412 136.571 163.387 136.302 163.534 136.117C163.901 135.673 164.251 135.207 164.62 134.744C164.768 134.558 165.029 134.52 165.225 134.658C165.41 134.804 165.446 135.064 165.307 135.26C164.946 135.735 164.576 136.199 164.218 136.654C164.173 136.689 164.15 136.706 164.127 136.724ZM110.985 176.211C110.916 176.263 110.819 176.302 110.727 176.3C110.153 176.309 109.551 176.303 108.96 176.289C108.725 176.29 108.537 176.092 108.549 175.849C108.55 175.614 108.75 175.425 108.994 175.435C109.585 175.45 110.167 175.452 110.741 175.444C110.976 175.443 111.176 175.632 111.174 175.867C111.155 176.008 111.087 176.132 110.985 176.211ZM167.803 131.779C167.655 131.893 167.46 131.899 167.29 131.796C167.094 131.658 167.037 131.396 167.176 131.199C167.506 130.73 167.838 130.241 168.161 129.741C168.3 129.545 168.564 129.486 168.76 129.624C168.956 129.761 169.013 130.024 168.873 130.22C168.539 130.729 168.206 131.218 167.877 131.687C167.863 131.716 167.837 131.753 167.803 131.779ZM140.32 152.367C140.275 152.402 140.209 152.434 140.146 152.446C139.567 152.567 138.971 152.664 138.386 152.753C138.157 152.785 137.932 152.634 137.893 152.394C137.863 152.165 138.016 151.94 138.257 151.899C138.486 151.867 138.707 151.824 138.936 151.792C139.012 151.229 139.088 150.667 139.133 150.111C139.154 149.879 139.362 149.701 139.595 149.72C139.828 149.74 140.004 149.946 139.983 150.178C139.938 150.663 139.892 151.148 139.827 151.629C139.879 151.626 139.922 151.611 139.973 151.607C140.205 151.555 140.43 151.706 140.481 151.938C140.519 152.106 140.446 152.27 140.32 152.367ZM171.153 126.599C171.017 126.705 170.83 126.722 170.669 126.63C170.47 126.512 170.405 126.238 170.524 126.039C170.827 125.536 171.131 125.034 171.434 124.531C171.553 124.332 171.819 124.253 172.027 124.382C172.225 124.499 172.302 124.764 172.172 124.973C171.868 125.475 171.565 125.978 171.262 126.48C171.225 126.527 171.199 126.564 171.153 126.599ZM50.9952 218.163C50.9381 218.207 50.8609 218.248 50.7691 218.247C50.5312 218.268 50.3291 218.099 50.2987 217.87C50.2456 217.281 50.1925 216.692 50.1595 216.106C50.1406 215.868 50.3227 215.657 50.5693 215.647C50.8073 215.627 51.018 215.807 51.0256 216.053C51.0613 216.619 51.1144 217.208 51.1588 217.786C51.18 217.932 51.1093 218.076 50.9952 218.163ZM104.832 175.966C104.752 176.028 104.646 176.055 104.534 176.051C103.977 176.011 103.403 175.947 102.777 175.888C102.545 175.869 102.368 175.662 102.401 175.421C102.422 175.189 102.63 175.011 102.871 175.042C103.497 175.101 104.063 175.153 104.62 175.194C104.852 175.213 105.029 175.42 105.007 175.652C104.991 175.772 104.935 175.888 104.832 175.966ZM134.214 153.058C134.146 153.111 134.06 153.14 133.957 153.148C133.372 153.165 132.769 153.159 132.178 153.145C131.943 153.146 131.755 152.948 131.767 152.705C131.769 152.47 131.968 152.281 132.212 152.292C132.783 152.303 133.377 152.297 133.95 152.289C134.186 152.288 134.385 152.477 134.395 152.703C134.385 152.855 134.317 152.979 134.214 153.058ZM174.296 121.291C174.159 121.396 173.973 121.413 173.82 121.332C173.621 121.215 173.545 120.95 173.664 120.75C173.959 120.236 174.242 119.731 174.536 119.217C174.647 119.007 174.922 118.94 175.12 119.057C175.319 119.174 175.396 119.439 175.277 119.639C174.982 120.153 174.699 120.658 174.404 121.172C174.379 121.209 174.342 121.256 174.296 121.291ZM139.973 146.102C139.905 146.154 139.819 146.184 139.715 146.191C139.48 146.192 139.29 146.014 139.271 145.777C139.255 145.213 139.233 144.618 139.189 144.04C139.17 143.803 139.352 143.591 139.59 143.571C139.828 143.55 140.039 143.73 140.058 143.968C140.099 144.565 140.132 145.152 140.145 145.736C140.144 145.899 140.076 146.023 139.973 146.102ZM177.315 115.915C177.19 116.012 177.003 116.029 176.851 115.948C176.64 115.839 176.564 115.574 176.674 115.364C176.949 114.847 177.243 114.333 177.518 113.817C177.628 113.606 177.894 113.528 178.105 113.636C178.315 113.745 178.391 114.01 178.281 114.22C178.007 114.737 177.721 115.262 177.437 115.768C177.398 115.834 177.361 115.88 177.315 115.915ZM98.7106 175.338C98.6193 175.408 98.5134 175.436 98.4014 175.432C97.8272 175.368 97.2328 175.303 96.6586 175.24C96.426 175.22 96.2609 175.005 96.2822 174.773C96.3034 174.541 96.5202 174.374 96.7528 174.394C97.3384 174.448 97.9214 174.522 98.4957 174.586C98.7369 174.616 98.8933 174.82 98.872 175.052C98.8671 175.164 98.8019 175.268 98.7106 175.338ZM50.7723 212.037C50.6925 212.098 50.6066 212.128 50.4947 212.124C50.2594 212.125 50.0715 211.927 50.0727 211.692C50.0913 211.102 50.1099 210.512 50.1486 209.925C50.1612 209.681 50.3693 209.503 50.6018 209.523C50.8458 209.534 51.0223 209.74 51.0011 209.972C50.9651 210.54 50.9464 211.13 50.9191 211.708C50.943 211.834 50.875 211.958 50.7723 212.037ZM128.078 152.693C127.986 152.763 127.869 152.8 127.749 152.784C127.157 152.698 126.568 152.593 125.99 152.478C125.752 152.427 125.618 152.206 125.66 151.976C125.701 151.746 125.927 151.591 126.165 151.642C126.722 151.754 127.303 151.849 127.874 151.932C128.104 151.971 128.269 152.187 128.228 152.416C128.223 152.528 128.158 152.632 128.078 152.693ZM180.21 110.473C180.085 110.569 179.907 110.598 179.754 110.517C179.544 110.408 179.456 110.152 179.566 109.941C179.841 109.425 180.107 108.897 180.373 108.369C180.483 108.158 180.74 108.069 180.951 108.177C181.161 108.286 181.249 108.542 181.139 108.753C180.873 109.281 180.598 109.797 180.332 110.325C180.304 110.383 180.256 110.438 180.21 110.473ZM139.337 140.004C139.28 140.048 139.226 140.072 139.151 140.093C138.919 140.145 138.686 139.982 138.655 139.754C138.548 139.189 138.432 138.612 138.313 138.055C138.263 137.824 138.407 137.587 138.639 137.535C138.871 137.483 139.107 137.626 139.158 137.857C139.285 138.425 139.41 139.013 139.515 139.598C139.536 139.744 139.463 139.908 139.337 140.004ZM92.5953 174.741C92.5154 174.803 92.4095 174.83 92.2975 174.826C91.7005 174.78 91.1121 174.746 90.5552 174.706C90.3112 174.695 90.1347 174.489 90.156 174.256C90.1685 174.013 90.3767 173.835 90.6092 173.855C91.1775 173.886 91.7659 173.92 92.3717 173.977C92.6042 173.997 92.7807 174.203 92.7595 174.435C92.7518 174.567 92.6866 174.671 92.5953 174.741ZM182.99 104.975C182.865 105.071 182.687 105.1 182.534 105.019C182.324 104.91 182.236 104.654 182.335 104.452C182.601 103.924 182.855 103.405 183.101 102.875C183.211 102.664 183.46 102.563 183.67 102.672C183.881 102.78 183.98 103.028 183.87 103.238C183.604 103.766 183.358 104.297 183.092 104.825C183.084 104.885 183.047 104.931 182.99 104.975ZM51.3558 205.922C51.2645 205.992 51.1471 206.028 51.0265 206.012C50.7967 205.973 50.6316 205.758 50.6729 205.528C50.772 204.948 50.8824 204.36 51.0015 203.782C51.0543 203.544 51.2771 203.409 51.5069 203.448C51.7454 203.499 51.879 203.721 51.8377 203.95C51.7212 204.508 51.6021 205.085 51.5145 205.656C51.5009 205.756 51.4357 205.86 51.3558 205.922ZM122.108 151.247C121.994 151.335 121.848 151.357 121.701 151.307C121.135 151.112 120.58 150.909 120.038 150.676C119.825 150.588 119.717 150.329 119.808 150.116C119.898 149.902 120.158 149.793 120.371 149.881C120.904 150.102 121.439 150.303 121.985 150.496C122.21 150.575 122.32 150.814 122.247 151.05C122.237 151.131 122.177 151.194 122.108 151.247ZM185.655 99.4215C185.529 99.5178 185.363 99.5375 185.208 99.4768C184.986 99.377 184.898 99.1206 185 98.8987C185.245 98.3682 185.491 97.8378 185.737 97.3074C185.838 97.0854 186.096 96.9958 186.309 97.0842C186.531 97.184 186.619 97.4404 186.528 97.6536C186.283 98.184 186.037 98.7144 185.78 99.2536C185.76 99.3226 185.712 99.3777 185.655 99.4215ZM86.4397 174.517C86.3712 174.57 86.274 174.609 86.1821 174.607C85.5883 174.613 85.0032 174.63 84.4468 174.661C84.2088 174.682 84.0095 174.493 83.9905 174.256C83.9716 174.018 84.1623 173.818 84.4003 173.797C84.9768 173.769 85.5733 173.743 86.1671 173.737C86.4024 173.736 86.6017 173.925 86.6006 174.16C86.6103 174.314 86.5424 174.439 86.4397 174.517ZM52.8183 199.959C52.7041 200.047 52.558 200.069 52.42 200.031C52.1956 199.951 52.0734 199.721 52.1463 199.485C52.3344 198.927 52.534 198.36 52.7422 197.804C52.8237 197.58 53.084 197.47 53.297 197.559C53.5213 197.638 53.6294 197.897 53.5392 198.11C53.3336 198.646 53.1368 199.193 52.9487 199.751C52.9378 199.831 52.8867 199.907 52.8183 199.959ZM137.768 134.084C137.733 134.11 137.699 134.136 137.647 134.14C137.421 134.224 137.182 134.101 137.1 133.876C136.919 133.332 136.705 132.794 136.492 132.256C136.398 132.04 136.514 131.789 136.731 131.694C136.958 131.611 137.199 131.713 137.293 131.929C137.515 132.479 137.717 133.025 137.916 133.592C137.983 133.774 137.916 133.97 137.768 134.084ZM188.196 93.8011C188.07 93.8975 187.904 93.9171 187.769 93.859C187.547 93.7592 187.448 93.5115 187.549 93.2896C187.786 92.7478 188.012 92.2149 188.249 91.6731C188.339 91.4599 188.599 91.3501 188.812 91.4386C189.025 91.5271 189.133 91.786 189.043 91.9992C188.806 92.541 188.58 93.074 188.343 93.6157C188.301 93.7022 188.253 93.7573 188.196 93.8011ZM116.547 148.678C116.41 148.783 116.223 148.8 116.062 148.708C115.561 148.409 115.042 148.087 114.554 147.76C114.358 147.622 114.302 147.36 114.441 147.163C114.58 146.966 114.844 146.908 115.04 147.045C115.518 147.362 116.008 147.669 116.501 147.957C116.7 148.074 116.776 148.34 116.646 148.548C116.638 148.608 116.592 148.643 116.547 148.678ZM80.3273 175.106C80.2817 175.141 80.2159 175.173 80.1529 175.186C79.5857 175.297 79.0157 175.429 78.4631 175.583C78.2398 175.646 78.0035 175.504 77.9416 175.281C77.8797 175.059 78.0243 174.822 78.2476 174.759C78.8203 174.607 79.4104 174.478 79.989 174.358C80.221 174.306 80.4459 174.457 80.4964 174.688C80.5148 174.854 80.4529 175.009 80.3273 175.106ZM55.2238 194.281C55.0983 194.377 54.9206 194.405 54.768 194.325C54.5578 194.216 54.4698 193.96 54.5916 193.74C54.8661 193.224 55.1634 192.69 55.458 192.176C55.577 191.976 55.8433 191.898 56.0421 192.015C56.2409 192.133 56.3174 192.398 56.1984 192.597C55.9065 193.091 55.6206 193.616 55.3575 194.124C55.3064 194.199 55.2695 194.246 55.2238 194.281ZM190.61 88.1339C190.496 88.2215 190.338 88.2525 190.183 88.1918C189.97 88.1033 189.85 87.8531 189.952 87.6312C190.169 87.0868 190.395 86.5539 190.623 86.0008C190.713 85.7876 190.965 85.6665 191.186 85.7663C191.399 85.8548 191.519 86.1049 191.417 86.3269C191.2 86.8712 190.972 87.4243 190.746 87.9573C190.727 88.0263 190.678 88.0814 190.61 88.1339ZM74.4304 176.896C74.3961 176.923 74.3733 176.94 74.3304 176.955C73.7897 177.172 73.2578 177.4 72.7345 177.64C72.5172 177.735 72.264 177.641 72.1592 177.434C72.0658 177.218 72.1615 176.964 72.3702 176.858C72.9048 176.61 73.4596 176.364 74.0003 176.147C74.2176 176.052 74.468 176.166 74.5614 176.382C74.6374 176.575 74.5787 176.782 74.4304 176.896ZM58.5252 189.084C58.3769 189.198 58.1617 189.201 58.0031 189.089C57.8184 188.943 57.7821 188.683 57.9212 188.486C58.2821 188.011 58.6516 187.548 59.0299 187.096C59.1777 186.91 59.4559 186.895 59.6406 187.041C59.8253 187.187 59.8388 187.464 59.691 187.65C59.3241 188.093 58.9546 188.557 58.5964 189.012C58.5823 189.04 58.548 189.067 58.5252 189.084ZM68.9308 179.677C68.9194 179.686 68.908 179.695 68.8966 179.704C68.4054 180.009 67.9027 180.322 67.4289 180.65C67.2262 180.788 66.9676 180.734 66.8313 180.533C66.695 180.332 66.7505 180.073 66.9531 179.936C67.4384 179.599 67.9525 179.277 68.4551 178.963C68.6551 178.845 68.9137 178.899 69.05 179.1C69.1548 179.308 69.102 179.546 68.9308 179.677ZM62.643 184.503C62.4718 184.634 62.2279 184.623 62.066 184.46C61.9042 184.296 61.9108 184.021 62.0874 183.85C62.5205 183.445 62.965 183.032 63.4155 182.65C63.6008 182.49 63.8736 182.515 64.024 182.687C64.1745 182.86 64.1565 183.143 63.9826 183.295C63.5435 183.668 63.1104 184.072 62.6887 184.468C62.6658 184.485 62.6544 184.494 62.643 184.503ZM135.328 128.471C135.305 128.489 135.294 128.497 135.271 128.515C135.062 128.621 134.806 128.548 134.681 128.338C134.414 127.823 134.135 127.318 133.844 126.821C133.728 126.622 133.795 126.355 133.995 126.238C134.195 126.12 134.462 126.185 134.587 126.395C134.886 126.903 135.174 127.42 135.45 127.945C135.56 128.113 135.499 128.34 135.328 128.471ZM111.606 145.075C111.446 145.197 111.211 145.198 111.066 145.057C110.618 144.663 110.194 144.251 109.769 143.839C109.607 143.676 109.594 143.398 109.77 143.227C109.947 143.055 110.214 143.048 110.384 143.223C110.789 143.632 111.216 144.024 111.635 144.404C111.808 144.559 111.822 144.837 111.665 145.011C111.651 145.04 111.628 145.057 111.606 145.075ZM192.909 82.4112C192.795 82.4988 192.637 82.5297 192.491 82.4803C192.266 82.4006 192.158 82.1417 192.248 81.9285C192.465 81.3842 192.674 80.8285 192.879 80.293C192.961 80.0685 193.221 79.9587 193.434 80.0472C193.647 80.1357 193.766 80.3858 193.676 80.599C193.468 81.1547 193.251 81.699 193.034 82.2433C193.026 82.3035 192.966 82.3674 192.909 82.4112ZM195.07 76.6504C194.956 76.738 194.798 76.7689 194.663 76.7108C194.439 76.6311 194.319 76.3809 194.41 76.1677C194.606 75.6208 194.815 75.0652 195.003 74.507C195.084 74.2825 195.324 74.1701 195.56 74.2411C195.785 74.3208 195.895 74.5597 195.822 74.7955C195.626 75.3424 195.426 75.9093 195.229 76.4562C195.198 76.534 195.139 76.5978 195.07 76.6504ZM132.074 123.286C131.88 123.435 131.61 123.39 131.462 123.197C131.323 123.016 131.193 122.846 131.054 122.665C130.836 122.382 130.628 122.11 130.399 121.836C130.251 121.643 130.287 121.382 130.461 121.231C130.646 121.071 130.916 121.115 131.066 121.288C131.295 121.562 131.521 121.857 131.738 122.14C131.877 122.321 132.016 122.502 132.155 122.683C132.303 122.876 132.256 123.146 132.074 123.286ZM107.45 140.581C107.256 140.73 106.995 140.697 106.847 140.504C106.491 140.04 106.137 139.555 105.803 139.074C105.667 138.872 105.723 138.614 105.925 138.476C106.128 138.339 106.387 138.392 106.523 138.594C106.848 139.064 107.193 139.537 107.54 139.99C107.679 140.171 107.632 140.441 107.45 140.581ZM197.116 70.834C197.002 70.9216 196.856 70.9438 196.718 70.9058C196.493 70.8261 196.371 70.596 196.444 70.3601C196.632 69.8019 196.82 69.2437 196.997 68.6943C197.079 68.4697 197.31 68.3461 197.546 68.417C197.77 68.4967 197.892 68.7269 197.82 68.9627C197.631 69.5209 197.443 70.0791 197.255 70.6373C197.224 70.7151 197.184 70.7815 197.116 70.834ZM199.024 64.9796C198.921 65.0585 198.772 65.1007 198.626 65.0514C198.39 64.9804 198.279 64.7416 198.341 64.5145C198.509 63.9537 198.697 63.3955 198.865 62.8347C198.926 62.6076 199.169 62.4752 199.405 62.5462C199.641 62.6171 199.763 62.8472 199.69 63.0831C199.522 63.6438 199.343 64.2134 199.166 64.7628C199.144 64.8519 199.092 64.9271 199.024 64.9796ZM128.058 118.667C127.886 118.798 127.643 118.787 127.489 118.635C127.073 118.235 126.657 117.834 126.23 117.443C126.056 117.288 126.043 117.01 126.199 116.836C126.356 116.662 126.634 116.646 126.807 116.801C127.235 117.193 127.671 117.596 128.096 118.008C128.258 118.171 128.271 118.449 128.095 118.62C128.092 118.641 128.08 118.649 128.058 118.667ZM104.196 135.396C104.173 135.413 104.15 135.431 104.119 135.437C103.91 135.543 103.645 135.458 103.54 135.251C103.275 134.716 103.031 134.184 102.786 133.653C102.692 133.437 102.788 133.183 103.005 133.088C103.223 132.994 103.476 133.087 103.569 133.303C103.794 133.833 104.05 134.356 104.298 134.867C104.405 135.055 104.355 135.273 104.196 135.396ZM123.367 114.728C123.218 114.842 123.012 114.856 122.853 114.744C122.377 114.407 121.899 114.091 121.42 113.775C121.213 113.646 121.156 113.383 121.295 113.187C121.426 112.979 121.689 112.92 121.885 113.058C122.384 113.377 122.871 113.704 123.356 114.052C123.552 114.19 123.597 114.461 123.449 114.646C123.435 114.675 123.401 114.702 123.367 114.728ZM101.982 129.699C101.936 129.734 101.894 129.749 101.839 129.773C101.616 129.836 101.368 129.703 101.306 129.48C101.147 128.919 101.002 128.328 100.875 127.76C100.824 127.529 100.969 127.292 101.201 127.24C101.433 127.188 101.669 127.331 101.72 127.562C101.839 128.118 101.986 128.689 102.136 129.239C102.184 129.419 102.119 129.594 101.982 129.699ZM118.077 111.662C117.951 111.759 117.785 111.778 117.641 111.709C117.111 111.468 116.567 111.255 116.05 111.077C115.825 110.997 115.715 110.758 115.796 110.534C115.878 110.309 116.118 110.197 116.342 110.277C116.889 110.469 117.453 110.684 118.011 110.939C118.233 111.039 118.321 111.295 118.231 111.508C118.173 111.552 118.134 111.619 118.077 111.662ZM100.959 123.665C100.891 123.717 100.805 123.747 100.722 123.757C100.484 123.778 100.285 123.589 100.266 123.352C100.235 122.745 100.234 122.152 100.253 121.562C100.265 121.319 100.453 121.139 100.697 121.149C100.941 121.16 101.12 121.346 101.108 121.59C101.083 122.149 101.096 122.732 101.12 123.308C101.133 123.442 101.062 123.586 100.959 123.665ZM112.166 110.08C112.087 110.142 111.981 110.169 111.869 110.165C111.292 110.122 110.718 110.131 110.182 110.164C109.944 110.185 109.733 110.005 109.714 109.767C109.695 109.53 109.877 109.318 110.115 109.298C110.703 109.26 111.317 109.257 111.934 109.305C112.167 109.325 112.343 109.531 112.322 109.763C112.334 109.898 112.258 110.01 112.166 110.08ZM101.641 117.582C101.538 117.661 101.401 117.695 101.263 117.657C101.035 117.597 100.905 117.356 100.977 117.12C101.16 116.53 101.371 115.954 101.608 115.413C101.709 115.191 101.967 115.101 102.18 115.19C102.401 115.289 102.489 115.546 102.399 115.759C102.168 116.26 101.982 116.799 101.805 117.348C101.76 117.455 101.709 117.53 101.641 117.582ZM106.237 111.356C106.226 111.365 106.203 111.382 106.191 111.391C106.157 111.417 106.114 111.432 106.08 111.459C105.634 111.729 105.215 112.033 104.83 112.382C104.645 112.542 104.381 112.529 104.222 112.345C104.063 112.161 104.078 111.898 104.263 111.737C104.682 111.362 105.147 111.023 105.647 110.729C105.681 110.703 105.724 110.688 105.77 110.653C105.97 110.536 106.237 110.6 106.362 110.81C106.461 110.986 106.408 111.225 106.237 111.356Z" fill="white"/>
</svg>
