<svg width="16" height="16" viewBox="0 0 16 16" fill="none" xmlns="http://www.w3.org/2000/svg">
<path d="M8 16C9.58225 16 11.129 15.5308 12.4446 14.6518C13.7602 13.7727 14.7855 12.5233 15.391 11.0615C15.9965 9.59966 16.155 7.99113 15.8463 6.43928C15.5376 4.88743 14.7757 3.46197 13.6569 2.34315C12.538 1.22433 11.1126 0.462403 9.56072 0.153721C8.00887 -0.15496 6.40034 0.00346643 4.93853 0.608967C3.47672 1.21447 2.22729 2.23985 1.34824 3.55544C0.469192 4.87103 0 6.41775 0 8C0.00461107 10.1203 0.848946 12.1525 2.34824 13.6518C3.84753 15.1511 5.87968 15.9954 8 16ZM8 14.5455C6.67409 14.5466 5.37985 14.1404 4.29236 13.3818C5.48025 11.6874 7.16287 10.4015 9.10982 9.70037C9.57246 11.1625 9.8653 12.6731 9.98254 14.2022C9.34334 14.4181 8.67459 14.5339 8 14.5455ZM11.3745 13.5796C11.2325 12.1303 10.9425 10.6993 10.5091 9.30909C11.7963 9.05238 13.1215 9.05238 14.4087 9.30909C14.2229 10.1913 13.8571 11.0257 13.3343 11.7603C12.8115 12.4948 12.1429 13.1137 11.3702 13.5782L11.3745 13.5796ZM14.5295 7.85455C13.0369 7.57877 11.5045 7.60052 10.0204 7.91855C9.83563 7.44437 9.63782 6.97455 9.41673 6.51346C10.7107 5.7366 11.8398 4.71369 12.7404 3.50255C13.8556 4.6813 14.4932 6.23226 14.5295 7.85455ZM8 1.45455C9.28869 1.45278 10.549 1.8329 11.6218 2.54691C10.8479 3.61712 9.87136 4.52496 8.74763 5.21891C8.0476 3.96915 7.22252 2.79368 6.28509 1.71055C6.84282 1.54944 7.41953 1.46335 8 1.45455ZM4.86982 2.28655C5.85983 3.38494 6.72477 4.5899 7.44873 5.87927C5.61846 6.66362 3.59639 6.88638 1.63927 6.51928C1.85033 5.62645 2.24708 4.7881 2.8037 4.05881C3.36031 3.32952 4.0643 2.72566 4.86982 2.28655ZM3.49091 8.17309C5.08702 8.16818 6.66449 7.8298 8.12218 7.17964C8.30545 7.56218 8.46836 7.93891 8.62545 8.34328C6.44696 9.12139 4.55537 10.5414 3.2 12.416C2.08163 11.2171 1.45809 9.63955 1.45455 8C2.1286 8.10402 2.80897 8.16185 3.49091 8.17309Z" fill="#0D1218"/>
</svg>
