<svg width="23" height="21" viewBox="0 0 23 21" fill="none" xmlns="http://www.w3.org/2000/svg">
<path fill-rule="evenodd" clip-rule="evenodd" d="M3.44399 13.6697L2.09961 15.0143L7.08536 20L8.90729 18.1778L11.0857 17.6326L18.0276 10.6908C18.4774 10.241 18.4774 9.50499 18.0276 9.05515C17.5784 8.60596 16.8437 8.60532 16.3938 9.05334L17.1204 8.32666C17.5703 7.87687 17.5703 7.14077 17.1204 6.69099C16.672 6.24255 15.939 6.2412 15.4888 6.68701L16.4986 5.67732C16.9483 5.22754 16.9483 4.49148 16.4986 4.04169C16.0487 3.59186 15.3127 3.59186 14.8629 4.04165L13.8492 5.05535C14.299 4.60556 14.299 3.86951 13.8492 3.41976C13.3995 2.97001 12.6634 2.96993 12.2135 3.41976L6.4944 9.13886L6.68893 5.87549C6.72367 5.29315 6.27096 4.70663 5.62993 4.58515L4.77629 4.42332L3.1401 9.78939L3.44399 13.6697Z" fill="#FFBC95"/>
<path fill-rule="evenodd" clip-rule="evenodd" d="M3.44399 13.6697L2.09961 15.0143L7.08536 20L7.75752 19.3277L3.44403 15.0142L4.42596 14.0321L4.10192 9.89456L5.71499 4.6043C5.68702 4.59699 5.65871 4.59061 5.62993 4.58516L4.77629 4.42332L3.1401 9.78939L3.44399 13.6697Z" fill="#FFBC95"/>
<path d="M11.4082 15.5186L11.8564 15.0704M12.3045 14.6222L12.7527 14.174" stroke="white" stroke-width="0.633803" stroke-miterlimit="2.613"/>
<path d="M15.4842 6.69104C15.9341 6.24121 16.67 6.24121 17.1199 6.69104C17.5697 7.14083 17.5697 7.87688 17.1199 8.32667L12.8555 12.5911" stroke="#0D1218" stroke-width="0.633803" stroke-miterlimit="2.613"/>
<path d="M11.2196 10.9553L16.4977 5.67727C16.9475 5.22743 16.9475 4.49142 16.4977 4.04159C16.0479 3.5918 15.3119 3.5918 14.8621 4.04159L9.58398 9.31969" stroke="#0D1218" stroke-width="0.633803" stroke-miterlimit="2.613"/>
<path d="M11.0278 4.60552L12.2135 3.4198C12.6634 2.96997 13.3995 2.97001 13.8492 3.4198C14.299 3.86955 14.299 4.60561 13.8492 5.05539M6.4944 9.1389L10.5797 5.05366M6.4944 9.1389L6.68893 5.87549C6.72367 5.2932 6.27096 4.70668 5.62993 4.58516L4.77629 4.42332L3.1401 9.78944L3.44399 13.6697L2.09961 15.0143L3.92023 16.8349M6.4944 9.1389L7.39076 10.0352C8.37671 11.0212 8.37671 12.6346 7.39076 13.6206L6.4944 14.5169M4.81655 17.7313L4.36841 17.2831M16.3919 9.05515C16.8418 8.60537 17.5778 8.60541 18.0276 9.05515C18.4774 9.50499 18.4774 10.241 18.0276 10.6908L11.0857 17.6327L8.90728 18.1778L7.08536 20L5.26474 18.1794" stroke="#0D1218" stroke-width="0.633803" stroke-miterlimit="22.926"/>
<path d="M20.3099 11.1231C20.3099 12.2899 19.3641 13.2358 18.1973 13.2358M22.0001 11.1231C22.0001 13.2227 20.2969 14.9259 18.1973 14.9259" stroke="white" stroke-width="0.633803" stroke-miterlimit="22.926"/>
<path d="M2.69014 4.78516C2.69014 3.61833 3.63603 2.67248 4.80282 2.67248M1 4.78516C1 2.68549 2.70315 0.982339 4.80282 0.982339" stroke="white" stroke-width="0.633803" stroke-miterlimit="22.926"/>
</svg>
