<svg width="13" height="17" viewBox="0 0 13 17" fill="none" xmlns="http://www.w3.org/2000/svg">
<path d="M7.58585 12.33C6.56863 12.25 6.14121 11.7368 5.34346 11.2441C4.905 13.5845 4.36917 15.828 2.78206 17C2.29156 13.4627 3.50114 10.8059 4.06288 7.98577C3.10538 6.34597 4.17801 3.0454 6.19758 3.85871C8.68319 4.85869 4.04561 9.95596 7.15891 10.5926C10.4092 11.2573 11.736 4.85503 9.72031 2.77259C6.80801 -0.233946 1.24315 2.70426 1.92746 7.00823C2.09416 8.06044 3.16295 8.37985 2.3544 9.83176C0.490492 9.4118 -0.0654901 7.91622 0.0059864 5.92236C0.121356 2.65863 2.88855 0.373412 5.66414 0.0571656C9.17441 -0.342534 12.469 1.36851 12.9238 4.72765C13.4354 8.51894 11.3391 12.6248 7.58585 12.33Z" fill="#0D1218"/>
</svg>
