<svg width="18" height="14" viewBox="0 0 18 14" fill="none" xmlns="http://www.w3.org/2000/svg">
<path d="M18 1.65836C17.3228 1.94135 16.6065 2.12935 15.8732 2.21655C16.6462 1.77793 17.2241 1.08304 17.4971 0.263742C16.7736 0.674665 15.9819 0.964066 15.1564 1.11941C14.6505 0.601722 13.9935 0.24168 13.2708 0.0861135C12.5482 -0.0694531 11.7934 -0.0133442 11.1045 0.247142C10.4157 0.507628 9.82467 0.960435 9.4084 1.54667C8.99214 2.1329 8.76986 2.82543 8.7705 3.53418C8.7679 3.8047 8.79673 4.07467 8.85645 4.3391C7.38794 4.27008 5.95117 3.90541 4.63998 3.26889C3.3288 2.63238 2.17269 1.73835 1.24718 0.645205C0.771459 1.42285 0.624076 2.34497 0.835154 3.22312C1.04623 4.10127 1.59983 4.86912 2.38281 5.36975C1.7984 5.35468 1.22636 5.20523 0.715026 4.93404V4.97254C0.716671 5.78766 1.01153 6.57738 1.55003 7.20897C2.08854 7.84057 2.83787 8.27551 3.67205 8.44071C3.35637 8.52007 3.03105 8.5589 2.70466 8.55619C2.46965 8.56035 2.23484 8.5404 2.00427 8.4967C2.24326 9.19772 2.70337 9.81067 3.32131 10.2512C3.93925 10.6918 4.68467 10.9384 5.45504 10.957C4.14957 11.9333 2.54022 12.4637 0.883267 12.4636C0.588036 12.466 0.292964 12.4496 0 12.4146C1.68949 13.4569 3.65881 14.0076 5.669 13.9999C12.4627 13.9999 16.1768 8.61569 16.1768 3.94889C16.1768 3.79315 16.1768 3.64267 16.164 3.49218C16.8873 2.99267 17.5095 2.37125 18 1.65836Z" fill="#0D1218"/>
</svg>
