<svg width="82" height="82" viewBox="0 0 82 82" fill="none" xmlns="http://www.w3.org/2000/svg">
<g opacity="0.2">
<path d="M19.2188 12.4482C8.61929 12.4482 0 21.0699 0 31.667C0 41.342 7.18365 49.3702 16.502 50.6934C15.756 56.1128 13.6868 61.2693 10.4539 65.7409C9.82511 66.6136 9.84865 67.796 10.5195 68.6405C11.1778 69.4716 12.3216 69.7866 13.3255 69.3631C28.5794 62.9961 38.4375 48.1972 38.4375 31.667C38.4375 21.0699 29.8182 12.4482 19.2188 12.4482ZM62.7812 12.4482C52.1818 12.4482 43.5625 21.0699 43.5625 31.667C43.5625 41.342 50.7461 49.3702 60.0645 50.6934C59.3185 56.1128 57.2493 61.2693 54.0164 65.7409C53.3876 66.6136 53.4112 67.796 54.082 68.6405C54.7403 69.4716 55.8841 69.7866 56.888 69.3631C72.1419 62.9961 82 48.1972 82 31.667C82 21.0699 73.3807 12.4482 62.7812 12.4482Z" fill="#B3B3BF"/>
</g>
</svg>
