<svg width="60" height="60" viewBox="0 0 60 60" fill="none" xmlns="http://www.w3.org/2000/svg">
<circle cx="28" cy="32" r="28" fill="#0D1218"/>
<circle cx="32" cy="28" r="28" fill="#FF7B57"/>
<path fill-rule="evenodd" clip-rule="evenodd" d="M24.1273 26.244C23.4922 22.7276 26.1615 19.9287 29.457 20.0933C31.7711 20.2096 34.1313 21.8558 34.1553 24.7771C34.1699 26.8471 32.7948 28.7278 31.2795 29.3191C30.3297 29.6901 28.9988 29.4669 28.9654 28.3409C28.9357 27.3189 29.9486 27.2251 30.7197 26.6628C33.485 24.6495 31.3472 20.0024 27.4924 21.0018C25.5264 21.5125 24.0355 23.5085 24.1273 26.244Z" fill="white"/>
<path fill-rule="evenodd" clip-rule="evenodd" d="M18.2611 32.0354C16.5012 22.3078 23.8835 14.5616 33.0021 15.0193C39.4054 15.3415 45.939 19.8958 45.9997 27.9744C46.042 33.704 42.2422 38.9045 38.0449 40.5436C35.4231 41.5679 31.7357 40.9521 31.6454 37.8367C31.5626 35.0054 34.3608 34.748 36.4947 33.197C44.1461 27.6232 38.2326 14.7665 27.5713 17.533C22.1291 18.9451 18.0052 24.4674 18.2611 32.0354Z" fill="white"/>
<path fill-rule="evenodd" clip-rule="evenodd" d="M21.8089 28.5072C20.7137 22.4517 25.3091 17.6291 30.9845 17.9138C34.9706 18.1145 39.0372 20.949 39.0744 25.9789C39.1021 29.545 36.7362 32.7833 34.1238 33.8029C32.4909 34.4398 30.1951 34.0571 30.1396 32.1178C30.0879 30.3559 31.8318 30.1955 33.159 29.2284C37.9218 25.7598 34.2396 17.7571 27.6025 19.4792C24.2172 20.3586 21.6471 23.7958 21.8089 28.5072Z" fill="white"/>
</svg>
