<svg width="60" height="60" viewBox="0 0 60 60" fill="none" xmlns="http://www.w3.org/2000/svg">
<circle cx="28" cy="32" r="28" fill="#0D1218"/>
<circle cx="32" cy="28" r="28" fill="#0756DC"/>
<path d="M27.4502 25.0573C27.6801 24.5903 27.9619 24.1579 28.3007 23.7644C28.6545 23.449 29.0087 23.1335 29.3625 22.8181C29.8125 22.5172 30.2834 22.3063 30.7722 22.1698V14L27.1229 17.743V21.1171H23.1064L22.7744 24.1433L18 26.5524H26.8783C26.9721 26.0425 27.1847 25.5311 27.4502 25.0573Z" fill="white"/>
<path d="M33.4047 22.2081C34.0873 22.3953 34.6821 22.7564 35.1887 23.2915C35.7598 23.7183 36.2106 24.2844 36.5402 24.9897C36.8121 25.4823 36.991 26.0045 37.086 26.5528H45.9983L41.224 24.1438L40.8919 21.1175H36.8758V17.7434L33.2266 14.0004V22.1803C33.2859 22.1899 33.3453 22.199 33.4047 22.2081Z" fill="white"/>
<path d="M30.5221 34.0972C29.8394 33.91 29.2446 33.5489 28.7376 33.0139C28.1665 32.587 27.7158 32.021 27.3861 31.3156C27.0643 30.7327 26.874 30.1082 26.8 29.4476H18L22.7744 31.8566L23.1064 34.8829H27.1229V38.257L30.7722 42V34.136C30.6887 34.1232 30.6052 34.1104 30.5221 34.0972Z" fill="white"/>
<path d="M37.1148 29.4476C37.099 29.516 37.0895 29.5845 37.0709 29.653C36.989 30.1963 36.761 30.7432 36.4781 31.2481C36.2481 31.7151 35.9667 32.147 35.6276 32.5409C35.2738 32.8564 34.9196 33.1718 34.5658 33.4873C34.138 33.7735 33.6915 33.9812 33.2285 34.1186V42L36.8778 38.257V34.8829H40.8943L41.2263 31.8566L46.0007 29.4476H37.1148Z" fill="white"/>
</svg>
