<svg width="60" height="60" viewBox="0 0 60 60" fill="none" xmlns="http://www.w3.org/2000/svg">
<circle cx="28" cy="32" r="28" fill="#0D1218"/>
<g clip-path="url(#clip0_1029_4011)">
<path d="M31.9487 55.999C47.4124 55.999 59.9482 43.4632 59.9482 27.9995C59.9482 12.5358 47.4124 0 31.9487 0C16.485 0 3.94922 12.5358 3.94922 27.9995C3.94922 43.4632 16.485 55.999 31.9487 55.999Z" fill="#CB2027"/>
<path d="M28.9737 23.9042L30.8418 25.7599C31.4828 26.3965 32.5173 26.3967 33.1586 25.7604L34.694 24.2364L35.0162 23.8942L43.9953 14.9148C44.3328 14.5773 44.0939 14 43.6163 14H40.4617C39.4475 14 38.4749 14.4029 37.7576 15.12L31.9999 20.8775L30.0972 18.9748C29.3955 18.2731 28.4435 17.8787 27.4511 17.8787H22.9688L28.984 23.8939L28.9737 23.9042Z" fill="white"/>
<path d="M35.0267 32.0967L33.1605 30.2427C32.5187 29.605 31.4822 29.6047 30.8401 30.2421L29.3067 31.7642L28.9845 32.1062L20.0034 41.0872C19.6665 41.4242 19.9051 42 20.3816 42H23.5713C24.5648 42 25.5174 41.6055 26.22 40.9029L32.0005 35.1222L33.877 36.9988C34.5957 37.7175 35.5703 38.121 36.5866 38.121H41.0319L35.0167 32.1059L35.0267 32.0967Z" fill="white"/>
<path d="M24.8773 28.0003L22.9891 29.8889C22.2782 30.5998 21.8786 31.5644 21.8786 32.57V37.0321L27.8936 31.017L27.9036 31.027L29.7645 29.1538C30.403 28.5108 30.4011 27.4724 29.7598 26.8322L18.9069 15.9957C18.572 15.6613 18 15.8985 18 16.3716V19.5439C18 20.562 18.3965 21.5191 19.1163 22.2389L24.8773 28.0003Z" fill="white"/>
<path d="M44.9005 33.7734L39.1553 28.0002L41.0619 26.0844C41.7525 25.3902 42.1404 24.4509 42.1404 23.4715V18.9648L36.1513 24.983L36.1413 24.973L34.3082 26.8265C33.677 27.4647 33.6728 28.4909 34.2988 29.1341L36.1419 31.0283L36.1519 31.0182L45.1115 40.0213C45.439 40.3502 46.0004 40.1185 46.0004 39.6543V36.4414C46.0004 35.4341 45.6097 34.4865 44.9005 33.7734Z" fill="white"/>
</g>
<defs>
<clipPath id="clip0_1029_4011">
<rect width="56" height="56" fill="white" transform="translate(4)"/>
</clipPath>
</defs>
</svg>
