<svg width="60" height="60" viewBox="0 0 60 60" fill="none" xmlns="http://www.w3.org/2000/svg">
<circle cx="28" cy="32" r="28" fill="#0D1218"/>
<circle cx="32" cy="28" r="28" fill="url(#paint0_linear_1039_4370)"/>
<path d="M44.731 19C43.478 19 42.4616 20.0185 42.4616 21.2756C42.4616 21.7963 42.6384 22.2767 42.9322 22.6605L36.7672 28.445C36.6514 28.388 36.5233 28.353 36.3852 28.353H34.1907C34.0491 28.353 33.9192 28.3901 33.803 28.4482L32.0184 26.768C32.3135 26.5344 32.5059 26.1772 32.5059 25.7715V22.5497C32.5059 21.8462 31.9372 21.2752 31.2349 21.2752H28.0225C27.321 21.2752 26.7516 21.8462 26.7516 22.5497V25.7715C26.7516 26.1807 26.9482 26.5411 27.2483 26.7751L20.0952 33.0606C20.0835 33.0595 20.0744 33.057 20.0638 33.057H17.8692C17.3891 33.057 17 33.4475 17 33.9279V36.1302C17 36.6106 17.3891 37 17.8692 37H20.0638C20.5439 37 20.9323 36.6106 20.9323 36.1302V33.9279C20.9323 33.7583 20.8825 33.6012 20.7988 33.4663L28.1101 27.0449H31.1912L33.337 29.0666C33.3278 29.118 33.3218 29.17 33.3218 29.2238V31.4247C33.3218 31.9062 33.7102 32.2956 34.1903 32.2956H36.3849C36.865 32.2956 37.2537 31.9062 37.2537 31.4247V29.2238C37.2537 29.1668 37.2474 29.1109 37.2371 29.0574L43.497 23.1844C43.8519 23.4156 44.2752 23.5508 44.7302 23.5508C45.9843 23.5508 47 22.5323 47 21.2756C47.0007 20.0185 45.985 19 44.731 19Z" fill="white"/>
<path opacity="0.7" d="M44.7661 22.8777C45.6455 22.8777 46.3583 22.1629 46.3583 21.2812C46.3583 20.3994 45.6455 19.6846 44.7661 19.6846C43.8867 19.6846 43.1738 20.3994 43.1738 21.2812C43.1738 22.1629 43.8867 22.8777 44.7661 22.8777Z" fill="#F04E40"/>
<path opacity="0.68" d="M30.4554 26.2333H28.7653C28.0853 26.2333 27.5293 25.6754 27.5293 24.994V23.2526C27.5293 22.5708 28.0857 22.0132 28.7653 22.0132H30.4554C31.1353 22.0132 31.6914 22.5711 31.6914 23.2526V24.994C31.6917 25.6758 31.1353 26.2333 30.4554 26.2333Z" fill="#FCAE0B"/>
<defs>
<linearGradient id="paint0_linear_1039_4370" x1="65.5" y1="2" x2="14" y2="49.5" gradientUnits="userSpaceOnUse">
<stop stop-color="#D43D95"/>
<stop offset="1" stop-color="#FFC050"/>
</linearGradient>
</defs>
</svg>
