<svg width="61" height="60" viewBox="0 0 61 60" fill="none" xmlns="http://www.w3.org/2000/svg">
<g clip-path="url(#clip0_315_4686)">
<path d="M29.2054 59.2172C29.5314 59.7062 30.0803 60 30.668 60C31.2557 60 31.8046 59.7063 32.1306 59.2172C36.2906 52.9773 42.418 45.2709 46.6879 37.4333C50.102 31.1666 51.7617 25.8218 51.7617 21.0938C51.7617 9.46266 42.2991 0 30.668 0C19.0369 0 9.57422 9.46266 9.57422 21.0938C9.57422 25.8218 11.2339 31.1666 14.6481 37.4333C18.9148 45.265 25.0539 52.9902 29.2054 59.2172ZM30.668 3.51562C40.3605 3.51562 48.2461 11.4012 48.2461 21.0938C48.2461 25.2192 46.7265 30.0138 43.6007 35.7514C39.9202 42.5072 34.668 49.3602 30.668 55.1214C26.6685 49.361 21.416 42.5075 17.7353 35.7514C14.6094 30.0138 13.0898 25.2192 13.0898 21.0938C13.0898 11.4012 20.9754 3.51562 30.668 3.51562Z" fill="#4D5763"/>
<path d="M30.668 31.6406C36.4835 31.6406 41.2148 26.9093 41.2148 21.0938C41.2148 15.2782 36.4835 10.5469 30.668 10.5469C24.8524 10.5469 20.1211 15.2782 20.1211 21.0938C20.1211 26.9093 24.8524 31.6406 30.668 31.6406ZM30.668 14.0625C34.545 14.0625 37.6992 17.2167 37.6992 21.0938C37.6992 24.9708 34.545 28.125 30.668 28.125C26.7909 28.125 23.6367 24.9708 23.6367 21.0938C23.6367 17.2167 26.7909 14.0625 30.668 14.0625Z" fill="#4D5763"/>
</g>
<defs>
<clipPath id="clip0_315_4686">
<rect width="60" height="60" fill="white" transform="translate(0.667969)"/>
</clipPath>
</defs>
</svg>
