<svg width="61" height="60" viewBox="0 0 61 60" fill="none" xmlns="http://www.w3.org/2000/svg">
<g clip-path="url(#clip0_315_3129)">
<path d="M60.3359 13.0528C60.3359 10.0083 57.8589 7.53125 54.8144 7.53125H5.85748C2.81353 7.53137 0.336992 10.0072 0.335938 13.0537V13.0547V46.9453C0.335938 50.0279 2.83813 52.4687 5.85936 52.4687H54.8124C57.8949 52.4687 60.3358 49.9667 60.3358 46.9453V13.0547C60.3358 13.0544 60.3358 13.0542 60.3358 13.054C60.3359 13.0536 60.3359 13.0533 60.3359 13.0528ZM5.85748 11.047H54.8144C55.9204 11.047 56.8203 11.9469 56.8203 13.0557C56.8203 13.6449 56.5274 14.1919 56.0364 14.5191L31.4498 30.9108C30.7733 31.3619 29.8988 31.362 29.2222 30.9108C29.2222 30.9108 4.63498 14.5187 4.63545 14.5191C4.63556 14.5192 4.6351 14.5188 4.63498 14.5187C4.14443 14.1919 3.85158 13.6449 3.85158 13.0528C3.85158 11.9468 4.75146 11.047 5.85748 11.047ZM54.8125 48.9531H5.85936C4.76494 48.9531 3.85158 48.0682 3.85158 46.9453V18.2218L27.2719 33.8358C28.2026 34.4564 29.2693 34.7666 30.3359 34.7666C31.4027 34.7666 32.4695 34.4564 33.4001 33.8358L56.8203 18.2218V46.9454C56.8203 48.0397 55.9354 48.9531 54.8125 48.9531Z" fill="#4D5763"/>
</g>
<defs>
<clipPath id="clip0_315_3129">
<rect width="60" height="60" fill="white" transform="translate(0.335938)"/>
</clipPath>
</defs>
</svg>
