<svg width="80" height="80" viewBox="0 0 80 80" fill="none" xmlns="http://www.w3.org/2000/svg">
<path d="M74.7727 57.7147C74.7727 62.639 72.8196 67.1061 69.6586 70.3302C66.5055 73.5623 62.1367 75.5592 57.3207 75.5592C47.681 75.5592 39.8688 67.5713 39.8688 57.7147C39.8688 52.7904 37.9157 48.3232 34.7547 45.0991C31.6016 41.8671 27.2328 39.8701 22.4168 39.8701C12.777 39.8701 4.96484 31.8821 4.96484 22.0255C4.96484 17.1012 6.91791 12.634 10.0789 9.40998C13.232 6.1779 17.6008 4.18091 22.4168 4.18091C27.2328 4.18091 31.6016 6.1779 34.7547 9.40998C37.9157 12.634 39.8688 17.1012 39.8688 22.0255C39.8688 31.8821 47.681 39.8701 57.3207 39.8701C62.1367 39.8701 66.5055 41.8671 69.6586 45.0991C72.8196 48.3232 74.7727 52.7904 74.7727 57.7147Z" fill="#C2F96C"/>
<path d="M74.7739 57.7122C74.7739 62.6365 72.8208 67.1037 69.6599 70.3278C69.1422 70.8651 68.5853 71.3623 68.0049 71.8195C69.3775 69.2771 70.1619 66.3418 70.1619 63.23C70.1619 58.3057 68.2088 53.8385 65.0478 50.6145C61.8947 47.3824 57.5259 45.3854 52.7099 45.3854C43.0701 45.3854 35.2579 37.3975 35.2579 27.5408C35.2579 22.6165 33.3049 18.1494 30.1439 14.9253C26.9908 11.6932 22.6219 9.69624 17.806 9.69624C13.7822 9.69624 10.0722 11.0917 7.12305 13.4336C7.91525 11.9499 8.91919 10.5945 10.08 9.40752C13.2332 6.17545 17.6021 4.17847 22.418 4.17847C27.234 4.17847 31.6028 6.17545 34.7559 9.40752C37.9169 12.6316 39.87 17.0987 39.87 22.0231C39.87 31.8797 47.6822 39.8676 57.3219 39.8676C62.1379 39.8676 66.5067 41.8646 69.6599 45.0967C72.8208 48.3207 74.7739 52.7879 74.7739 57.7122Z" fill="#0D1218"/>
<path d="M50.2073 30.4669C46.8017 26.9846 45.0934 22.414 45.0996 17.849C45.0941 13.2839 46.8024 8.71333 50.2073 5.23103C57.0234 -1.73839 68.0719 -1.73839 74.8879 5.23103C78.2936 8.71333 80.0012 13.2839 79.9957 17.849C80.0012 22.414 78.2928 26.9846 74.8879 30.4669C71.4823 33.9492 67.0122 35.6951 62.5477 35.6895C58.0831 35.6959 53.613 33.9492 50.2073 30.4669Z" fill="#0D1218"/>
<path d="M79.9977 17.8446C79.9977 22.7689 78.0447 27.236 74.8837 30.4601C73.3934 31.9839 71.6364 33.235 69.6912 34.1253C72.4443 30.9734 74.115 26.811 74.115 22.2556C74.115 17.3393 72.162 12.8641 69.001 9.64009C65.8479 6.41603 61.479 4.41102 56.6631 4.41102C54.1217 4.41102 51.6981 4.97243 49.5176 5.98295C49.7372 5.72631 49.9725 5.46967 50.2078 5.22907C53.3609 2.00501 57.7298 0 62.5457 0C67.3617 0 71.7306 2.00501 74.8837 5.22907C78.0447 8.45312 79.9977 12.9283 79.9977 17.8446Z" fill="#0D1218"/>
<path d="M5.10772 74.7774C1.70204 71.2951 -0.00625764 66.7245 1.72233e-05 62.1595C-0.00547328 57.5945 1.70283 53.0239 5.10772 49.5416C11.9238 42.5722 22.9723 42.5722 29.7883 49.5416C33.194 53.0239 34.9016 57.5945 34.8961 62.1595C34.9016 66.7245 33.1932 71.2951 29.7883 74.7774C26.3826 78.2597 21.9126 80.0057 17.448 80.0001C12.9835 80.0065 8.51341 78.2597 5.10772 74.7774Z" fill="#0D1218"/>
<path d="M34.8981 62.1554C34.8981 67.0798 32.9451 71.5469 29.7841 74.771C28.2938 76.2948 26.5368 77.5459 24.5916 78.4361C27.3447 75.2842 29.0154 71.1219 29.0154 66.5665C29.0154 61.6502 27.0624 57.175 23.9014 53.9509C20.7483 50.7269 16.3794 48.7219 11.5635 48.7219C9.02214 48.7219 6.59848 49.2833 4.41797 50.2938C4.63759 50.0372 4.8729 49.7805 5.10821 49.5399C8.26133 46.3159 12.6302 44.3109 17.4461 44.3109C22.2621 44.3109 26.631 46.3159 29.7841 49.5399C32.9451 52.764 34.8981 57.2392 34.8981 62.1554Z" fill="#0D1218"/>
</svg>
