<svg width="60" height="60" viewBox="0 0 60 60" fill="none" xmlns="http://www.w3.org/2000/svg">
<circle cx="28" cy="32" r="28" fill="#0D1218"/>
<circle cx="32" cy="28" r="28" fill="#FF4500"/>
<path d="M27.002 19.9341C29.134 20.851 31.3616 21.5711 33.5428 22.111C36.2779 22.7879 40.0085 23.4335 43.1891 22.8672C43.7149 22.6654 44.2402 22.4589 44.7645 22.2517C43.8666 20.2631 42.5201 18.521 40.8497 17.1569C37.9548 18.6542 34.662 19.0808 31.4086 19.4487C29.9395 19.6142 28.4661 19.8295 27.002 19.9341Z" fill="white"/>
<path d="M41.3795 35.7493C38.5358 36.5497 35.9962 37.9909 33.0575 38.4823C30.0212 38.9898 26.8795 39.3808 23.7676 39.3361C26.0772 41.0103 28.9155 42 31.9869 42C37.2066 42 41.7563 39.1468 44.168 34.9182C43.2362 35.2186 42.2989 35.4904 41.3795 35.7493Z" fill="white"/>
<path d="M31.4984 26.5046C33.2428 26.1303 34.9554 25.6643 36.6501 25.1443C35.8791 25.0348 35.1336 24.9059 34.4349 24.7689C29.8334 23.8671 24.8653 22.0543 20.9273 19.4066C19.2391 21.5721 18.1733 24.2441 18 27.1583C22.1944 28.3762 27.5826 27.3455 31.4984 26.5046Z" fill="white"/>
<path d="M33.1398 36.039C35.1039 35.6599 36.8872 34.7904 38.7385 34.0865C36.8996 34.0693 35.0672 33.9716 33.2154 33.7462C28.1031 33.1227 22.9552 31.6216 18.0859 29.7619C18.4164 32.3918 19.4756 34.7942 21.058 36.7612C25.0641 37.2537 29.2515 36.7904 33.1398 36.039Z" fill="white"/>
<path d="M45.5722 31.4452C45.8513 30.3427 46.0009 29.189 46.0009 28.0003C46.0009 26.8725 45.8637 25.777 45.6116 24.7263C45.028 24.9264 44.4206 25.0812 43.7965 25.1939C39.2068 26.9501 34.5535 28.4792 29.6745 29.2963C28.4624 29.4991 27.1748 29.6965 25.8574 29.8384C27.882 30.4015 29.9201 30.8599 31.935 31.1674C34.8855 31.6178 37.8884 31.8195 40.8713 31.6981C42.3717 31.6372 44.0222 31.6933 45.5722 31.4452Z" fill="white"/>
<path d="M31.4067 17.0436C33.8313 16.768 36.2414 16.4546 38.4652 15.5873C36.527 14.5755 34.3242 14 31.986 14C28.4977 14 25.3102 15.2761 22.8574 17.3824C25.5952 18.0646 28.6834 17.3532 31.4067 17.0436Z" fill="white"/>
</svg>
