<svg width="60" height="60" viewBox="0 0 60 60" fill="none" xmlns="http://www.w3.org/2000/svg">
<circle cx="28" cy="32" r="28" fill="#0D1218"/>
<circle cx="32" cy="28" r="28" fill="#5C6BC0"/>
<path d="M40.1236 18.2594C39.1622 18.0738 38.1867 17.9726 37.2112 17.9726C35.3726 17.9726 33.5369 18.3044 31.7939 18.9651L31.7855 18.9679L31.7518 18.982C31.5128 19.0719 31.2795 19.1703 31.0461 19.2743L30.9815 19.3025H30.9787C30.7425 19.4093 30.5092 19.5218 30.2787 19.6399H30.2759L30.214 19.6736C29.9891 19.7889 29.767 19.9126 29.5449 20.0391C29.5112 20.0616 29.4775 20.0813 29.4465 20.1009C29.2497 20.2162 29.0586 20.3371 28.8702 20.4608C28.8506 20.4749 28.8168 20.4917 28.7747 20.5199C27.951 21.0709 27.1638 21.7091 26.4385 22.4373V22.4401C26.4357 22.4401 26.4357 22.4401 26.4357 22.4401C26.4301 22.4457 26.4216 22.4542 26.416 22.4626C26.4441 22.3951 26.4694 22.3277 26.4975 22.263L26.5003 22.2602L26.5144 22.2264C26.6437 21.9369 26.7843 21.6529 26.9361 21.3717C27.8245 19.7101 29.0305 18.2482 30.4811 17.0673L30.4839 17.0645L30.4867 17.0617C30.5654 16.997 30.6526 16.9324 30.7397 16.8649C30.8044 16.8143 30.8634 16.7665 30.9168 16.7243C30.9646 16.6906 31.018 16.654 31.0743 16.6118C31.1726 16.5415 31.2682 16.4713 31.361 16.4066C31.5044 16.3054 31.6506 16.2098 31.7967 16.117L31.8024 16.1142L31.8192 16.103C31.9738 16.0045 32.1285 15.909 32.2859 15.819L32.2887 15.8162C33.9417 14.8518 35.8056 14.222 37.7959 14.0027C38.8389 15.3045 39.612 16.7468 40.1236 18.2594Z" fill="white"/>
<path d="M41.9943 34.2008C42.0139 33.8718 42.0252 33.5429 42.0252 33.2139C42.0252 31.378 41.6935 29.5393 41.0328 27.7989L41.03 27.7905L41.0188 27.7624C40.9344 27.5487 40.8501 27.335 40.7573 27.127C40.7123 27.0201 40.6617 26.9189 40.6196 26.8233C40.5802 26.739 40.5409 26.6462 40.4931 26.5478L40.4902 26.5422L40.4593 26.4803C40.4397 26.441 40.42 26.4016 40.4003 26.3651L40.389 26.3398C40.389 26.3369 40.3862 26.3369 40.3862 26.3341C40.3834 26.3313 40.3834 26.3285 40.3834 26.3257L40.375 26.3116L40.3694 26.3004L40.3637 26.2892L40.3581 26.2779C40.3328 26.2273 40.3075 26.1767 40.2794 26.1261L40.2766 26.1233L40.2738 26.1148L40.271 26.112C40.2316 26.0361 40.1923 25.9602 40.1473 25.8843L40.1445 25.8787L40.1417 25.873L40.1332 25.8562L40.1079 25.8168V25.814C40.0573 25.7212 40.0039 25.6256 39.9477 25.5272L39.9449 25.5244L39.9421 25.5188L39.9392 25.5132L39.9364 25.5075C39.8662 25.3895 39.7931 25.2658 39.7115 25.1392L39.7087 25.1336C39.6356 25.0183 39.5597 24.9003 39.4838 24.7822L39.4754 24.7709L39.467 24.7597C39.4332 24.7091 39.3911 24.6444 39.3433 24.5741L39.318 24.5376L39.3152 24.532L39.3067 24.5235L39.3039 24.5207L39.2955 24.5066L39.2899 24.501L39.287 24.4954L39.2477 24.442L39.2449 24.4364C39.183 24.3492 39.1212 24.262 39.0537 24.1721V24.1693H39.0509L39.0425 24.1552C39.0396 24.1552 39.0396 24.1552 39.0396 24.1524C38.9834 24.0737 38.9244 23.9978 38.8625 23.919C38.8232 23.8684 38.7923 23.8291 38.7726 23.8038C38.7164 23.7279 38.6573 23.6548 38.5955 23.5817L38.5927 23.5788L38.5645 23.5451C38.4971 23.4608 38.424 23.3736 38.3453 23.2836L38.3425 23.2808V23.278C38.0951 22.9912 37.8336 22.7129 37.5609 22.4374C37.5553 22.4346 37.5525 22.4289 37.5469 22.4233C37.62 22.4542 37.6987 22.4852 37.7718 22.5189C40.465 23.7279 42.7055 25.7578 44.1814 28.291L44.187 28.2994C45.1485 29.9497 45.7782 31.8138 45.9975 33.7987C44.6987 34.8418 43.2593 35.6122 41.7469 36.1239C41.7553 36.0732 41.7637 36.0255 41.7694 35.9833C41.789 35.8793 41.8087 35.7752 41.8284 35.6656V35.6571L41.8312 35.6459C41.8818 35.3282 41.924 35.0077 41.9549 34.6872C41.9633 34.5944 41.969 34.5072 41.9746 34.4229C41.9802 34.3526 41.9886 34.2795 41.9943 34.2008Z" fill="white"/>
<path d="M37.5807 33.5428C37.5666 33.5737 37.5554 33.6047 37.5413 33.6328C37.5188 33.689 37.4991 33.7368 37.4823 33.7762C36.2734 36.4668 34.2409 38.7104 31.7108 40.1836C30.0578 41.148 28.1939 41.7778 26.2036 41.9999C25.1606 40.6981 24.3875 39.2558 23.873 37.7432C24.8345 37.9288 25.8072 38.0272 26.7827 38.0272C28.6212 38.0272 30.4598 37.6983 32.2028 37.0375C32.4277 36.9504 32.6498 36.8576 32.869 36.762L32.9168 36.7423H32.9224L32.9281 36.7395C33.0461 36.6861 33.1614 36.6355 33.2682 36.5849L33.2767 36.5793L33.2851 36.5765L33.2992 36.568C33.3779 36.5315 33.4538 36.4949 33.5297 36.4584L33.5353 36.4556L33.5437 36.4499L33.5493 36.4471L33.569 36.4359L33.6084 36.4162C33.6084 36.4162 33.6084 36.4162 33.6112 36.4162L33.6421 36.4021C33.6955 36.3768 33.7433 36.3487 33.7883 36.3262L33.8108 36.315L33.822 36.3094L33.8249 36.3065L33.8417 36.2981L33.8614 36.2869H33.867L33.8698 36.284H33.8726V36.2812C33.9289 36.2531 33.9795 36.225 34.0301 36.1969C34.0554 36.1856 34.0863 36.1688 34.1228 36.1463H34.1257L34.1313 36.1435L34.151 36.1322H34.1538L34.1566 36.1294C34.2409 36.0816 34.3281 36.031 34.418 35.9804L34.4574 35.9579L34.4602 35.9551C34.4714 35.9495 34.5108 35.927 34.553 35.8989C34.6204 35.8623 34.6851 35.823 34.7469 35.7864C34.7469 35.7864 34.7469 35.7864 34.7469 35.7836L34.7919 35.7583L34.7975 35.7527H34.8004C34.8228 35.7386 34.865 35.7133 34.9128 35.6824C35.0112 35.6205 35.1096 35.5559 35.208 35.4912L35.2192 35.4828L35.2305 35.4771L35.2361 35.4743C35.3261 35.4125 35.4216 35.3478 35.52 35.2747L35.5257 35.2719L35.5285 35.2691L35.5341 35.2663C35.6156 35.21 35.6943 35.1538 35.7674 35.0976H35.7702C35.773 35.0948 35.7759 35.0948 35.7787 35.092C35.9136 34.9936 36.0429 34.8952 36.1722 34.7939L36.1975 34.7743L36.206 34.7658C36.2734 34.7124 36.3437 34.6562 36.4112 34.6028L36.4196 34.5943H36.4224L36.4506 34.5718L36.4534 34.569L36.459 34.5634L36.4646 34.5578C36.5546 34.4875 36.6389 34.4144 36.7176 34.3469V34.3441C37.0072 34.0967 37.2883 33.838 37.561 33.5625L37.5807 33.5428Z" fill="white"/>
<path d="M23.5714 37.6862L23.5709 37.6852H23.5703L23.5714 37.6862Z" fill="white"/>
<path d="M26.4526 33.5794C26.3963 33.5569 26.3373 33.5344 26.2811 33.5091L26.2783 33.5063L26.2248 33.4838C23.9393 32.4576 21.9827 30.8382 20.5377 28.8223C20.2819 28.4624 20.0373 28.0941 19.8152 27.7118L19.8068 27.6977C18.8509 26.0502 18.2212 24.1889 18.002 22.204C19.3036 21.1609 20.7457 20.3877 22.2582 19.8761C22.0698 20.8376 21.9714 21.8132 21.9714 22.7888C21.9714 24.6275 22.3032 26.4634 22.9638 28.2066C23.3602 29.2525 23.8775 30.2674 24.5184 31.2233V31.2262C25.0694 32.0528 25.7076 32.8344 26.4357 33.5654C26.4413 33.571 26.4469 33.5766 26.4526 33.5794Z" fill="white"/>
<path d="M30.8568 15.3636C28.515 16.9408 26.6371 19.1535 25.4676 21.757C25.0066 22.7804 24.658 23.8628 24.4303 24.993C24.2391 25.9574 24.1351 26.9555 24.1351 27.9789V28.0295C24.1042 27.9508 24.0676 27.8749 24.0395 27.7989C23.4267 26.1879 23.123 24.4898 23.123 22.7888C23.123 21.5742 23.2777 20.3625 23.5897 19.1816C24.0761 17.3288 24.9504 15.566 26.2042 14C27.86 14.1856 29.4259 14.6551 30.8568 15.3636Z" fill="white"/>
<path d="M45.9999 22.2041C45.8144 23.8601 45.3449 25.4261 44.6365 26.86C43.0537 24.518 40.8469 22.6399 38.2437 21.4703C37.7602 21.2538 37.2626 21.057 36.7509 20.8911H36.7481C36.6694 20.863 36.5935 20.8405 36.5176 20.818H36.5148L36.512 20.8152C36.4304 20.7899 36.3489 20.7646 36.2646 20.7421L36.259 20.7393H36.2533L36.2308 20.7336C36.1015 20.6943 35.975 20.6605 35.8485 20.6268C35.722 20.5931 35.5842 20.5593 35.4437 20.5284H35.4409L35.4268 20.5228C35.2919 20.4919 35.1541 20.4637 35.0164 20.4328H34.9995C34.9995 20.4328 34.9995 20.43 34.9967 20.43H34.9855V20.4272C34.9264 20.4188 34.8533 20.4019 34.7662 20.385L34.724 20.3766H34.7212L34.7071 20.3738H34.6987L34.6847 20.371H34.679L34.6706 20.3682C34.6425 20.3653 34.6172 20.3597 34.6116 20.3597L34.6031 20.3569H34.5975C34.4963 20.3372 34.3895 20.3204 34.277 20.3063L34.2573 20.3035C34.1618 20.2866 34.0634 20.2726 33.9678 20.2613C33.9031 20.2529 33.8497 20.2473 33.816 20.2444C33.726 20.2304 33.6332 20.2219 33.5377 20.2135L33.5349 20.2107L33.4927 20.2079H33.4899C33.383 20.1966 33.2734 20.1854 33.1525 20.1798L33.1441 20.177C32.7674 20.1489 32.3851 20.1348 31.9999 20.1348H31.9746C32.0505 20.1039 32.1236 20.0701 32.1995 20.0392C33.8104 19.4291 35.514 19.1227 37.2148 19.1227C38.4264 19.1227 39.6381 19.2801 40.8188 19.5894C42.6686 20.0757 44.434 20.9529 45.9999 22.2041Z" fill="white"/>
<path d="M40.8755 33.2196C40.8755 34.4314 40.7208 35.6431 40.4088 36.8212C39.9224 38.6712 39.0482 40.434 37.7971 42C36.1441 41.8144 34.5783 41.3449 33.1445 40.6392C35.4835 39.0563 37.3614 36.8465 38.5309 34.2458V34.243C38.6377 34.0097 38.7361 33.7707 38.8317 33.5289L38.8345 33.5233C38.8823 33.4024 38.9245 33.2843 38.9666 33.1718V33.169L38.9694 33.1606V33.1578L38.9779 33.1409C39.006 33.0565 39.0341 32.9778 39.0594 32.8991L39.0622 32.8963L39.065 32.885L39.0678 32.8794L39.0763 32.8513C39.1016 32.7754 39.124 32.7051 39.1437 32.6404L39.1578 32.5983L39.1606 32.5955V32.5898C39.1943 32.4886 39.2281 32.3818 39.259 32.2665L39.2618 32.2609V32.2524C39.3012 32.1287 39.3321 32.0078 39.363 31.887C39.3686 31.8701 39.3799 31.8307 39.3911 31.7801C39.4108 31.7042 39.4305 31.6283 39.4473 31.5608V31.558C39.4473 31.558 39.4473 31.558 39.4473 31.5552L39.4586 31.5074L39.4614 31.5046V31.5018C39.467 31.4765 39.4783 31.4315 39.4895 31.3724C39.5148 31.26 39.5401 31.1447 39.5654 31.0294L39.5682 31.0154V31.0041L39.571 30.9957C39.5907 30.886 39.616 30.768 39.6357 30.6443C39.6357 30.6443 39.6357 30.6443 39.6357 30.6415C39.6554 30.5402 39.6694 30.439 39.6835 30.3462C39.6835 30.3462 39.6835 30.3462 39.6835 30.3434C39.7116 30.1775 39.7313 30.0173 39.751 29.8542L39.7566 29.8205V29.8092C39.7678 29.7221 39.7763 29.6377 39.7875 29.5478V29.5393L39.7903 29.4972L39.7931 29.4887C39.8044 29.3735 39.8128 29.2582 39.8212 29.1513C39.8493 28.7718 39.8634 28.3894 39.8634 28.0014V27.9733C39.8943 28.052 39.9281 28.128 39.959 28.2067C40.569 29.8177 40.8755 31.5186 40.8755 33.2196Z" fill="white"/>
<path d="M32.0253 35.868C31.9494 35.8989 31.8707 35.9326 31.7948 35.9636C30.1839 36.5737 28.4831 36.8801 26.7823 36.8801C25.5707 36.8801 24.359 36.7227 23.1783 36.4134C21.3285 35.9242 19.5631 35.0498 18 33.7987C18.1827 32.1427 18.655 30.5739 19.3635 29.1428C20.9406 31.4848 23.153 33.3629 25.7534 34.5325C26.7767 34.9964 27.859 35.345 28.9892 35.57C29.9618 35.7668 30.9683 35.8708 32 35.8708C32.0084 35.8708 32.0169 35.868 32.0253 35.868Z" fill="white"/>
</svg>
