<svg width="60" height="60" viewBox="0 0 60 60" fill="none" xmlns="http://www.w3.org/2000/svg">
<circle cx="28" cy="32" r="28" fill="#0D1218"/>
<circle cx="32" cy="28" r="28" fill="#EA4C88"/>
<path d="M35.8175 31.8152C35.0165 33.5952 33.675 35.0783 32.0006 36.0533C31.9994 36.0545 31.9994 36.0545 31.9994 36.0533C30.6231 36.8571 29.0235 37.3164 27.3155 37.3164C25.9555 37.3164 24.6636 37.0244 23.4998 36.5003H23.4986C20.3338 35.0768 18.108 31.9393 18.0036 28.2716C18.0012 28.182 18 28.0915 18 28.0008C18 27.91 18.0012 27.8195 18.0036 27.7299C18.108 24.0622 20.3338 20.9247 23.4986 19.5012C22.9757 20.6651 22.6851 21.9569 22.6851 23.3157C22.6851 25.0236 23.1448 26.6233 23.9483 27.9995V28.0008C24.9233 29.6739 26.4052 31.0154 28.1837 31.8152L28.1849 31.8164C29.3488 32.3393 30.6406 32.6314 32.0006 32.6314C33.3606 32.6314 34.6537 32.3393 35.8175 31.8152Z" fill="url(#paint0_linear_1029_3980)"/>
<path d="M46.0003 28.0007C46.0003 28.0915 45.9991 28.182 45.9967 28.2716C45.8923 31.9393 43.6666 35.0768 40.503 36.5003C41.0259 35.3352 41.3167 34.0433 41.3167 32.6846C41.3167 30.9767 40.857 29.377 40.0536 28.0007V27.9995C39.0786 26.3252 37.5966 24.9837 35.8169 24.1839C34.6531 23.6597 33.3612 23.3692 32.0012 23.3692C30.6413 23.3692 29.3494 23.6597 28.1855 24.1839C28.9854 22.4051 30.3269 20.9235 32 19.9485H32.0012C33.3775 19.1447 34.9772 18.6854 36.6852 18.6854C38.0463 18.6854 39.3382 18.9774 40.5033 19.5015C43.6669 20.925 45.8926 24.0625 45.997 27.7302C45.9991 27.8195 46.0003 27.91 46.0003 28.0007Z" fill="url(#paint1_linear_1029_3980)"/>
<path d="M40.5031 19.5012C39.338 18.9771 38.0461 18.6851 36.685 18.6851C34.977 18.6851 33.3773 19.1447 32.001 19.9482H31.9998C30.3266 20.9232 28.9851 22.4051 28.1853 24.1836C27.6612 25.3474 27.3692 26.6405 27.3692 28.0005C27.3692 29.3592 27.6612 30.6511 28.1841 31.8149C26.4053 31.0151 24.9237 29.6736 23.9487 28.0005V27.9992C23.1449 26.623 22.6855 25.0233 22.6855 23.3154C22.6855 21.9566 22.9761 20.6648 23.499 19.5009C24.9225 16.335 28.0612 14.1077 31.7302 14.0036C31.8195 14.0012 31.9102 14 32.001 14C32.0918 14 32.1823 14.0012 32.2719 14.0036C35.9408 14.108 39.0796 16.3353 40.5031 19.5012Z" fill="white"/>
<path d="M41.3166 32.6846C41.3166 34.0434 41.0258 35.3352 40.5029 36.5003C39.0794 39.665 35.9406 41.892 32.2717 41.9964C32.1821 41.9988 32.0916 42 32.0008 42C31.91 42 31.8196 41.9988 31.73 41.9964C28.0607 41.892 24.922 39.665 23.5 36.5003C24.6639 37.0244 25.9557 37.3165 27.3157 37.3165C29.0237 37.3165 30.6233 36.8568 31.9996 36.0533C31.9996 36.0546 31.9996 36.0546 32.0008 36.0533C33.6752 35.0783 35.0167 33.5952 35.8177 31.8152C36.3407 30.6514 36.6312 29.3595 36.6312 28.0008C36.6312 26.6408 36.3392 25.3478 35.8162 24.1839C37.5962 24.9837 39.0778 26.3252 40.0529 27.9996V28.0008C40.8572 29.3771 41.3166 30.9767 41.3166 32.6846Z" fill="white"/>
<defs>
<linearGradient id="paint0_linear_1029_3980" x1="20.9284" y1="24.7079" x2="30.236" y2="35.4963" gradientUnits="userSpaceOnUse">
<stop stop-color="white"/>
<stop offset="1" stop-color="#E4EDEE" stop-opacity="0.64"/>
</linearGradient>
<linearGradient id="paint1_linear_1029_3980" x1="43.3059" y1="30.2891" x2="36.1137" y2="23.5198" gradientUnits="userSpaceOnUse">
<stop stop-color="white"/>
<stop offset="1" stop-color="#F5FAFA" stop-opacity="0.64"/>
</linearGradient>
</defs>
</svg>
