<svg width="60" height="60" viewBox="0 0 60 60" fill="none" xmlns="http://www.w3.org/2000/svg">
<circle cx="28" cy="32" r="28" fill="#0D1218"/>
<circle cx="32" cy="28" r="28" fill="#03A9F4"/>
<path d="M40.4666 22.4748C39.0421 22.4748 37.7477 23.0011 36.7671 23.8582C35.7884 25.3682 34.0592 26.375 32.0837 26.375C30.4065 26.375 28.9062 25.6487 27.8917 24.506C27.887 24.5116 27.8813 24.5166 27.8765 24.5222C26.8634 23.2769 25.2964 22.4744 23.533 22.4744C20.4771 22.4744 18 24.8752 18 27.8369C18 30.7987 20.4771 33.1995 23.533 33.1995C25.2187 33.1995 26.7252 32.4667 27.7401 31.3143C27.7659 31.3462 27.7888 31.3804 27.8155 31.4118C28.8304 30.2211 30.3655 29.462 32.0837 29.462C33.8042 29.462 35.3412 30.2234 36.3562 31.4169C37.3692 32.5087 38.8328 33.1995 40.467 33.1995C43.5229 33.1995 46 30.7987 46 27.8369C45.9995 24.8756 43.5224 22.4748 40.4666 22.4748Z" fill="white"/>
<path d="M32.0007 22.8003C34.2231 22.8003 36.0248 21.0542 36.0248 18.9002C36.0248 16.7462 34.2231 15 32.0007 15C29.7782 15 27.9766 16.7462 27.9766 18.9002C27.9766 21.0542 29.7782 22.8003 32.0007 22.8003Z" fill="white"/>
<path d="M32.0007 41C34.2231 41 36.0248 39.2539 36.0248 37.0999C36.0248 34.9459 34.2231 33.1997 32.0007 33.1997C29.7782 33.1997 27.9766 34.9459 27.9766 37.0999C27.9766 39.2539 29.7782 41 32.0007 41Z" fill="white"/>
</svg>
